# xmcd
#
# Track frame offsets:
#	150
#	13180
#	29095
#	41045
#	59432
#	72507
#	87527
#	106257
#	120422
#	134620
#	150782
#	170065
#	188922
#
# Disc length: 2667 seconds
#
# Revision: 0
# Processed by: cddbd v1.5.1PL0 Copyright (c) Steve Scherf et al.
# Submitted via: EasyCDDAExtractor 7.5.0.1
#
DISCID=b80a690d
DTITLE=Out of the Blue - Mighty Railroad Train
DYEAR=1900
DGENRE=Bluegrass
TTITLE0=Love of the Mountains
TTITLE1=It's Been Awhile Annie
TTITLE2=Let Me Be Your Friend
TTITLE3=Late In The Day
TTITLE4=Unsatisfied
TTITLE5=Little Maggie
TTITLE6=Mighty Railroad Train
TTITLE7=Sorrento
TTITLE8=Early Morning Rain
TTITLE9=Cruel Memories
TTITLE10=Old Ebenezer
TTITLE11=Where The Wild River Rolls
TTITLE12=Louis Collins
EXTD=
EXTT0=
EXTT1=
EXTT2=
EXTT3=
EXTT4=
EXTT5=
EXTT6=
EXTT7=
EXTT8=
EXTT9=
EXTT10=
EXTT11=
EXTT12=
PLAYORDER=
